# xmcd
#
# Track frame offsets:
#	150
#	9692
#	25758
#	42987
#	60411
#	72201
#	85057
#	98459
#	110704
#	129279
#	148014
#	161817
#	174794
#	187676
#	200446
#	215260
#	226825
#	239709
#
# Disc length: 3368 seconds
#
# Revision: 0
# Processed by: cddbd v1.5.2PL0 Copyright (c) Steve Scherf et al.
# Submitted via: EasyCDDAExtractor 11.0.0.1
#
DISCID=e60d2612
DTITLE=Don Walser and The Pure Texas Band - Texas Legand
DYEAR=2006
DGENRE=Country
TTITLE0=Casting My Lasso
TTITLE1=Cowboy Ramsey
TTITLE2=The John Deere Tractor Song
TTITLE3=Shelly's Winter Song
TTITLE4=Rolling Stone From Texas
TTITLE5=Tomorrow is a Million Mile Away
TTITLE6=Cowpoke
TTITLE7=Curtain in The Window
TTITLE8=All Around Cowboy
TTITLE9=Long Black Vail
TTITLE10=Big Ball in Cowtown
TTITLE11=Bouquet of Roses
TTITLE12=Chime Bells
TTITLE13=Fuzz Dixon
TTITLE14=You
TTITLE15=Yodel Polka
TTITLE16=Cattle Call
TTITLE17=Hill Country Waltz
EXTD=
EXTT0=
EXTT1=
EXTT2=
EXTT3=
EXTT4=
EXTT5=
EXTT6=
EXTT7=
EXTT8=
EXTT9=
EXTT10=
EXTT11=
EXTT12=
EXTT13=
EXTT14=
EXTT15=
EXTT16=
EXTT17=
PLAYORDER=
